<svg width="512" height="512" viewBox="0 0 512 512" fill="none" xmlns="http://www.w3.org/2000/svg">
<rect width="512" height="512" rx="256" fill="#151719"/>
<path d="M153.067 422.933C136.356 406.222 128 386.133 128 362.667C128 339.2 136.356 319.111 153.067 302.4C169.778 285.689 189.867 277.333 213.333 277.333C221.511 277.333 229.067 278.311 236 280.267C245.24 282.873 256 276.748 256 267.148V128C256 92.6537 284.654 64 320 64H341.333C364.897 64 384 83.1025 384 106.667C384 130.231 364.897 149.333 341.333 149.333C317.769 149.333 298.667 168.436 298.667 192V362.667C298.667 386.133 290.311 406.222 273.6 422.933C256.889 439.644 236.8 448 213.333 448C189.867 448 169.778 439.644 153.067 422.933Z" fill="#A238FF"/>
</svg>
