<svg width="100" height="28" viewBox="0 0 100 28" fill="none" xmlns="http://www.w3.org/2000/svg">
<g clip-path="url(#clip0_51_93)">
<path d="M0.808926 5.13568C0.362622 5.13568 0 6.58493 0 8.38593C0 10.1869 0.362622 11.6503 0.808926 11.6503C1.25523 11.6503 1.61785 10.1869 1.61785 8.38593C1.61785 6.58493 1.25523 5.13568 0.808926 5.13568Z" fill="#A238FF"/>
<path d="M24.5328 1.81508C24.1144 1.81508 23.7378 2.75779 23.4728 4.24925C23.0544 1.67437 22.371 0 21.6039 0C20.6834 0 19.9024 2.36382 19.5258 5.81106C19.1632 3.30653 18.6053 1.71658 17.9777 1.71658C17.099 1.71658 16.3598 4.85427 16.0809 9.23015C15.5648 6.97889 14.8117 5.57186 13.9888 5.57186C13.166 5.57186 12.4128 6.97889 11.8968 9.23015C11.6178 4.85427 10.8787 1.71658 9.99999 1.71658C9.37238 1.71658 8.8145 3.30653 8.45188 5.81106C8.08925 2.36382 7.29427 0 6.38772 0C5.62063 0 4.93723 1.67437 4.51882 4.24925C4.25383 2.75779 3.87726 1.81508 3.45885 1.81508C2.67782 1.81508 2.03625 5.0794 2.03625 9.10352C2.03625 13.1276 2.67782 16.392 3.45885 16.392C3.77963 16.392 4.08646 15.8432 4.32356 14.9146C4.70013 18.3196 5.48116 20.6553 6.40167 20.6553C7.11296 20.6553 7.74058 19.2482 8.15899 17.0392C8.45188 21.2462 9.17712 24.2291 10.0279 24.2291C10.5579 24.2291 11.046 23.0472 11.4086 21.1196C11.841 25.1015 12.8452 27.8874 14.0167 27.8874C15.1883 27.8874 16.1785 25.1015 16.6248 21.1196C16.9874 23.0472 17.4756 24.2291 18.0056 24.2291C18.8563 24.2291 19.5816 21.2462 19.8745 17.0392C20.2929 19.2482 20.9344 20.6553 21.6318 20.6553C22.5383 20.6553 23.3194 18.3196 23.7099 14.9146C23.947 15.8432 24.2399 16.392 24.5746 16.392C25.3556 16.392 25.9972 13.1276 25.9972 9.10352C25.9972 5.0794 25.3138 1.81508 24.5328 1.81508Z" fill="#A238FF"/>
<path d="M27.1827 5.13568C26.7364 5.13568 26.3738 6.599 26.3738 8.4C26.3738 10.201 26.7364 11.6643 27.1827 11.6643C27.629 11.6643 27.9916 10.201 27.9916 8.4C27.9916 6.599 27.629 5.13568 27.1827 5.13568Z" fill="#A238FF"/>
<path d="M47.643 18.0382H56.7364V15.0272H51.9247V13.6483H56.4436V11.186H51.9247V9.89149H56.7364V6.88043H47.643V18.0382Z" fill="white"/>
<path d="M57.7685 18.0382H66.8619V15.0272H62.0642V13.6483H66.583V11.186H62.0642V9.89149H66.8759V6.88043H57.7824V18.0382H57.7685Z" fill="white"/>
<path d="M99.9024 18.0382C99.2887 16.3357 98.4101 14.5206 97.2525 12.4804C98.6193 12.0724 99.4282 11.2141 99.4282 9.87738C99.4282 7.85125 97.5732 6.89447 94.6444 6.89447H88.6193V18.0382H92.9289V13.4231C93.8912 15.0553 94.5886 16.5889 95.0488 18.0382H99.9024ZM92.9289 11.8613V9.89146H94.4212C95.0488 9.89146 95.4114 10.2432 95.4114 10.8764C95.4114 11.5095 95.0488 11.8613 94.4212 11.8613H92.9289Z" fill="white"/>
<path d="M78.4798 18.0382H87.5872V15.0272H82.7755V13.6483H87.2943V11.186H82.7755V9.89149H87.5872V6.88043H78.4937V18.0382H78.4798Z" fill="white"/>
<path d="M67.908 9.89149H72.3571C70.5161 11.4111 68.9958 13.1417 67.8243 15.0131V18.0242H77.6011V15.0131H72.7197C73.8354 13.3669 75.3975 11.7347 77.6011 9.89149V6.88043H67.908V9.89149Z" fill="white"/>
<path d="M41.1297 6.88043H35.5928V18.0242H41.1297C44.5607 18.0242 46.9875 15.7166 46.9875 12.4523C46.9875 9.18797 44.5607 6.88043 41.1297 6.88043ZM40.8926 15.0131H39.8885V9.89149H40.8926C41.9666 9.89149 42.5384 10.6091 42.5384 12.4523C42.5523 14.2955 41.9666 15.0131 40.8926 15.0131Z" fill="white"/>
</g>
<defs>
<clipPath id="clip0_51_93">
<rect width="100" height="28" fill="white"/>
</clipPath>
</defs>
</svg>
